<svg
    xmlns="http://www.w3.org/2000/svg"
    xmlns:xlink="http://www.w3.org/1999/xlink"
    width="45px" height="15px">
    <path fill-rule="evenodd" fill="rgb(255, 255, 255)"
        d="M2.943,3.957 C4.313,4.879 5.663,5.833 7.058,6.716 C10.475,8.882 14.061,10.701 17.968,11.821 C22.384,13.088 26.810,13.349 31.225,11.821 C35.202,10.446 38.350,7.936 40.829,4.584 C41.703,3.402 42.412,2.096 43.181,0.838 C43.418,0.452 43.732,0.296 44.134,0.482 C44.546,0.671 44.620,1.032 44.450,1.442 C44.389,1.589 44.320,1.733 44.249,1.876 C43.374,3.641 42.265,5.251 40.971,6.727 C35.364,13.124 28.341,15.373 20.049,13.784 C15.868,12.982 12.018,11.293 8.369,9.152 C6.339,7.961 4.385,6.644 2.340,5.349 C2.377,5.537 2.409,5.734 2.454,5.926 C2.898,7.833 3.344,9.738 3.790,11.643 C3.826,11.799 3.865,11.955 3.888,12.112 C3.953,12.555 3.781,12.871 3.335,12.959 C2.922,13.041 2.633,12.836 2.523,12.433 C2.392,11.951 2.290,11.462 2.177,10.976 C1.627,8.623 1.077,6.270 0.528,3.917 C0.324,3.040 0.478,2.808 1.363,2.642 C4.052,2.137 6.741,1.631 9.430,1.126 C9.489,1.115 9.548,1.103 9.607,1.091 C10.081,0.996 10.472,1.109 10.570,1.628 C10.668,2.143 10.353,2.396 9.875,2.486 C8.088,2.821 6.302,3.157 4.516,3.493 C4.010,3.589 3.505,3.686 3.000,3.783 C2.981,3.841 2.962,3.899 2.943,3.957 Z" />
</svg>